<svg width="28" height="28" viewBox="0 0 28 28" fill="none" xmlns="http://www.w3.org/2000/svg">
<g clip-path="url(#clip0)" filter="url(#filter0_d)">
<path d="M23.9804 5.88005C23.9336 4.81738 23.7617 4.0868 23.5155 3.45374C23.2616 2.78176 22.8709 2.18014 22.359 1.68002C21.8589 1.1721 21.2533 0.777435 20.5891 0.527447C19.9524 0.281274 19.2256 0.109427 18.1629 0.0625732C17.0923 0.0117516 16.7524 0 14.0371 0C11.3217 0 10.9818 0.0117516 9.91517 0.0586052C8.8525 0.105459 8.12192 0.277459 7.48901 0.523479C6.81689 0.777435 6.21527 1.16814 5.71514 1.68002C5.20723 2.18014 4.81271 2.78573 4.56257 3.44992C4.3164 4.0868 4.14455 4.81341 4.0977 5.87609C4.04688 6.9467 4.03513 7.28658 4.03513 10.002C4.03513 12.7173 4.04688 13.0572 4.09373 14.1239C4.14058 15.1865 4.31258 15.9171 4.55876 16.5502C4.81271 17.2221 5.20723 17.8238 5.71514 18.3239C6.21527 18.8318 6.82085 19.2265 7.48505 19.4765C8.12192 19.7226 8.84853 19.8945 9.91136 19.9413C10.9779 19.9883 11.3179 19.9999 14.0333 19.9999C16.7486 19.9999 17.0885 19.9883 18.1552 19.9413C19.2178 19.8945 19.9484 19.7226 20.5813 19.4765C21.9254 18.9568 22.9881 17.8941 23.5078 16.5502C23.7538 15.9133 23.9258 15.1865 23.9726 14.1239C24.0195 13.0572 24.0312 12.7173 24.0312 10.002C24.0312 7.28658 24.0273 6.9467 23.9804 5.88005ZM22.1794 14.0457C22.1363 15.0225 21.9723 15.5499 21.8355 15.9015C21.4995 16.7728 20.8079 17.4643 19.9367 17.8004C19.585 17.9372 19.0538 18.1012 18.0808 18.1441C17.0259 18.1911 16.7096 18.2027 14.041 18.2027C11.3725 18.2027 11.0522 18.1911 10.0011 18.1441C9.02435 18.1012 8.4969 17.9372 8.14527 17.8004C7.71168 17.6402 7.31701 17.3862 6.99667 17.0541C6.66457 16.7298 6.41062 16.3391 6.25037 15.9055C6.11362 15.5539 5.94956 15.0225 5.90667 14.0497C5.85967 12.9948 5.84807 12.6783 5.84807 10.0097C5.84807 7.34122 5.85967 7.02087 5.90667 5.96995C5.94956 4.99319 6.11362 4.46575 6.25037 4.11412C6.41062 3.68038 6.66457 3.28586 7.00064 2.96536C7.3248 2.63327 7.7155 2.37931 8.14924 2.21921C8.50087 2.08247 9.03228 1.9184 10.0051 1.87537C11.06 1.82851 11.3765 1.81676 14.0449 1.81676C16.7173 1.81676 17.0337 1.82851 18.0848 1.87537C19.0615 1.9184 19.589 2.08247 19.9406 2.21921C20.3742 2.37931 20.7689 2.63327 21.0892 2.96536C21.4213 3.28967 21.6753 3.68038 21.8355 4.11412C21.9723 4.46575 22.1363 4.99701 22.1794 5.96995C22.2262 7.02484 22.238 7.34122 22.238 10.0097C22.238 12.6783 22.2262 12.9908 22.1794 14.0457Z" fill="#AFB1B8"/>
<path d="M14.0371 4.8642C11.2007 4.8642 8.89937 7.16537 8.89937 10.0019C8.89937 12.8385 11.2007 15.1396 14.0371 15.1396C16.8736 15.1396 19.1748 12.8385 19.1748 10.0019C19.1748 7.16537 16.8736 4.8642 14.0371 4.8642ZM14.0371 13.3346C12.197 13.3346 10.7044 11.8422 10.7044 10.0019C10.7044 8.16165 12.197 6.66921 14.0371 6.66921C15.8774 6.66921 17.3698 8.16165 17.3698 10.0019C17.3698 11.8422 15.8774 13.3346 14.0371 13.3346Z" fill="#AFB1B8"/>
<path d="M20.5775 4.6611C20.5775 5.32346 20.0405 5.86052 19.378 5.86052C18.7156 5.86052 18.1785 5.32346 18.1785 4.6611C18.1785 3.99858 18.7156 3.46167 19.378 3.46167C20.0405 3.46167 20.5775 3.99858 20.5775 4.6611Z" fill="#AFB1B8"/>
</g>
<defs>
<filter id="filter0_d" x="0" y="0" width="28" height="28" filterUnits="userSpaceOnUse" color-interpolation-filters="sRGB">
<feFlood flood-opacity="0" result="BackgroundImageFix"/>
<feColorMatrix in="SourceAlpha" type="matrix" values="0 0 0 0 0 0 0 0 0 0 0 0 0 0 0 0 0 0 127 0"/>
<feOffset dy="4"/>
<feGaussianBlur stdDeviation="2"/>
<feColorMatrix type="matrix" values="0 0 0 0 0 0 0 0 0 0 0 0 0 0 0 0 0 0 0.25 0"/>
<feBlend mode="normal" in2="BackgroundImageFix" result="effect1_dropShadow"/>
<feBlend mode="normal" in="SourceGraphic" in2="effect1_dropShadow" result="shape"/>
</filter>
<clipPath id="clip0">
<rect width="20" height="20" fill="white" transform="translate(4)"/>
</clipPath>
</defs>
</svg>
